<svg width="114" height="48" viewBox="0 0 114 48" fill="none" xmlns="http://www.w3.org/2000/svg">
<path d="M15.368 18H11.288L8.36 12.6C8.12 12.184 7.832 11.888 7.496 11.712C7.16 11.52 6.736 11.424 6.224 11.424H4.376V18H0.68V1.08H8.456C10.44 1.08 11.936 1.52 12.944 2.4C13.968 3.264 14.48 4.52 14.48 6.168C14.48 7.448 14.12 8.52 13.4 9.384C12.696 10.248 11.696 10.816 10.4 11.088C11.28 11.312 12.024 11.944 12.632 12.984L15.368 18ZM7.904 8.592C8.976 8.592 9.752 8.408 10.232 8.04C10.712 7.656 10.952 7.064 10.952 6.264C10.952 5.448 10.712 4.856 10.232 4.488C9.752 4.12 8.976 3.936 7.904 3.936H4.328V8.592H7.904ZM26.8681 12.792H19.1881C19.3001 13.736 19.6041 14.424 20.1001 14.856C20.6121 15.272 21.3321 15.48 22.2601 15.48C22.8681 15.48 23.4681 15.384 24.0601 15.192C24.6681 14.984 25.2201 14.696 25.7161 14.328L26.6761 16.752C26.1001 17.2 25.3961 17.552 24.5641 17.808C23.7481 18.064 22.9241 18.192 22.0921 18.192C20.1081 18.192 18.5401 17.648 17.3881 16.56C16.2521 15.456 15.6841 13.96 15.6841 12.072C15.6841 10.872 15.9321 9.808 16.4281 8.88C16.9241 7.952 17.6121 7.232 18.4921 6.72C19.3721 6.192 20.3721 5.928 21.4921 5.928C23.1401 5.928 24.4441 6.464 25.4041 7.536C26.3801 8.608 26.8681 10.064 26.8681 11.904V12.792ZM21.5881 8.424C20.9001 8.424 20.3481 8.648 19.9321 9.096C19.5321 9.528 19.2841 10.16 19.1881 10.992H23.8201C23.7721 10.144 23.5561 9.504 23.1721 9.072C22.8041 8.64 22.2761 8.424 21.5881 8.424ZM40.121 6.216V16.728C40.121 18.632 39.577 20.072 38.489 21.048C37.401 22.024 35.793 22.512 33.665 22.512C32.609 22.512 31.593 22.384 30.617 22.128C29.657 21.872 28.809 21.512 28.073 21.048L29.033 18.552C30.553 19.384 32.065 19.8 33.569 19.8C35.553 19.8 36.545 18.864 36.545 16.992V15.696C36.209 16.304 35.705 16.784 35.033 17.136C34.361 17.488 33.609 17.664 32.777 17.664C31.753 17.664 30.841 17.424 30.041 16.944C29.257 16.464 28.641 15.784 28.193 14.904C27.745 14.008 27.521 12.976 27.521 11.808C27.521 10.64 27.745 9.616 28.193 8.736C28.641 7.84 29.257 7.152 30.041 6.672C30.841 6.176 31.753 5.928 32.777 5.928C33.593 5.928 34.329 6.104 34.985 6.456C35.657 6.792 36.169 7.264 36.521 7.872V6.216H40.121ZM33.833 14.904C34.681 14.904 35.337 14.632 35.801 14.088C36.281 13.544 36.521 12.784 36.521 11.808C36.521 10.832 36.281 10.072 35.801 9.528C35.337 8.968 34.681 8.688 33.833 8.688C32.985 8.688 32.321 8.968 31.841 9.528C31.361 10.072 31.121 10.832 31.121 11.808C31.121 12.768 31.361 13.528 31.841 14.088C32.321 14.632 32.985 14.904 33.833 14.904ZM53.9735 6.216V16.728C53.9735 18.632 53.4295 20.072 52.3415 21.048C51.2535 22.024 49.6455 22.512 47.5175 22.512C46.4615 22.512 45.4455 22.384 44.4695 22.128C43.5095 21.872 42.6615 21.512 41.9255 21.048L42.8855 18.552C44.4055 19.384 45.9175 19.8 47.4215 19.8C49.4055 19.8 50.3975 18.864 50.3975 16.992V15.696C50.0615 16.304 49.5575 16.784 48.8855 17.136C48.2135 17.488 47.4615 17.664 46.6295 17.664C45.6055 17.664 44.6935 17.424 43.8935 16.944C43.1095 16.464 42.4935 15.784 42.0455 14.904C41.5975 14.008 41.3735 12.976 41.3735 11.808C41.3735 10.64 41.5975 9.616 42.0455 8.736C42.4935 7.84 43.1095 7.152 43.8935 6.672C44.6935 6.176 45.6055 5.928 46.6295 5.928C47.4455 5.928 48.1815 6.104 48.8375 6.456C49.5095 6.792 50.0215 7.264 50.3735 7.872V6.216H53.9735ZM47.6855 14.904C48.5335 14.904 49.1895 14.632 49.6535 14.088C50.1335 13.544 50.3735 12.784 50.3735 11.808C50.3735 10.832 50.1335 10.072 49.6535 9.528C49.1895 8.968 48.5335 8.688 47.6855 8.688C46.8375 8.688 46.1735 8.968 45.6935 9.528C45.2135 10.072 44.9735 10.832 44.9735 11.808C44.9735 12.768 45.2135 13.528 45.6935 14.088C46.1735 14.632 46.8375 14.904 47.6855 14.904ZM55.802 18V6.216H59.426V18H55.802ZM55.682 0.551999H59.57V3.936H55.682V0.551999ZM71.8484 12.792H64.1684C64.2804 13.736 64.5844 14.424 65.0804 14.856C65.5924 15.272 66.3124 15.48 67.2404 15.48C67.8484 15.48 68.4484 15.384 69.0404 15.192C69.6484 14.984 70.2004 14.696 70.6964 14.328L71.6564 16.752C71.0804 17.2 70.3764 17.552 69.5444 17.808C68.7284 18.064 67.9044 18.192 67.0724 18.192C65.0884 18.192 63.5204 17.648 62.3684 16.56C61.2324 15.456 60.6644 13.96 60.6644 12.072C60.6644 10.872 60.9124 9.808 61.4084 8.88C61.9044 7.952 62.5924 7.232 63.4724 6.72C64.3524 6.192 65.3524 5.928 66.4724 5.928C68.1204 5.928 69.4244 6.464 70.3844 7.536C71.3604 8.608 71.8484 10.064 71.8484 11.904V12.792ZM66.5684 8.424C65.8804 8.424 65.3284 8.648 64.9124 9.096C64.5124 9.528 64.2644 10.16 64.1684 10.992H68.8004C68.7524 10.144 68.5364 9.504 68.1524 9.072C67.7844 8.64 67.2564 8.424 66.5684 8.424ZM0.68 26.08H8.456C10.296 26.08 11.728 26.544 12.752 27.472C13.776 28.4 14.288 29.696 14.288 31.36C14.288 33.024 13.776 34.32 12.752 35.248C11.728 36.176 10.296 36.64 8.456 36.64H4.424V43H0.68V26.08ZM7.976 33.808C9.848 33.808 10.784 33 10.784 31.384C10.784 30.552 10.552 29.936 10.088 29.536C9.624 29.136 8.92 28.936 7.976 28.936H4.424V33.808H7.976ZM20.3437 30.928C22.1037 30.928 23.3997 31.344 24.2317 32.176C25.0797 33.008 25.5037 34.296 25.5037 36.04V43H22.0717V41.248C21.8317 41.856 21.4317 42.336 20.8717 42.688C20.3117 43.024 19.6557 43.192 18.9037 43.192C18.1037 43.192 17.3757 43.032 16.7197 42.712C16.0797 42.392 15.5677 41.944 15.1837 41.368C14.8157 40.792 14.6317 40.152 14.6317 39.448C14.6317 38.584 14.8477 37.904 15.2797 37.408C15.7277 36.912 16.4397 36.552 17.4157 36.328C18.3917 36.104 19.7277 35.992 21.4237 35.992H22.0477V35.56C22.0477 34.856 21.8957 34.36 21.5917 34.072C21.2877 33.784 20.7597 33.64 20.0077 33.64C19.4317 33.64 18.7917 33.744 18.0877 33.952C17.3837 34.16 16.7117 34.448 16.0717 34.816L15.1117 32.392C15.7837 31.976 16.6077 31.632 17.5837 31.36C18.5757 31.072 19.4957 30.928 20.3437 30.928ZM19.6957 40.696C20.3997 40.696 20.9677 40.464 21.3997 40C21.8317 39.52 22.0477 38.904 22.0477 38.152V37.744H21.6397C20.3437 37.744 19.4317 37.848 18.9037 38.056C18.3917 38.264 18.1357 38.64 18.1357 39.184C18.1357 39.616 18.2797 39.976 18.5677 40.264C18.8717 40.552 19.2477 40.696 19.6957 40.696ZM34.6453 30.928C36.0533 30.928 37.1013 31.344 37.7893 32.176C38.4773 32.992 38.8213 34.232 38.8213 35.896V43H35.1973V36.064C35.1973 35.264 35.0453 34.68 34.7413 34.312C34.4533 33.944 33.9973 33.76 33.3733 33.76C32.6213 33.76 32.0133 34 31.5493 34.48C31.1013 34.96 30.8773 35.6 30.8773 36.4V43H27.2532V31.216H30.7813V32.896C31.1973 32.256 31.7333 31.768 32.3893 31.432C33.0613 31.096 33.8133 30.928 34.6453 30.928ZM52.5907 31.216V41.728C52.5907 43.632 52.0467 45.072 50.9587 46.048C49.8707 47.024 48.2627 47.512 46.1347 47.512C45.0787 47.512 44.0627 47.384 43.0867 47.128C42.1267 46.872 41.2787 46.512 40.5427 46.048L41.5027 43.552C43.0227 44.384 44.5347 44.8 46.0387 44.8C48.0227 44.8 49.0147 43.864 49.0147 41.992V40.696C48.6787 41.304 48.1747 41.784 47.5027 42.136C46.8307 42.488 46.0787 42.664 45.2467 42.664C44.2227 42.664 43.3107 42.424 42.5107 41.944C41.7267 41.464 41.1107 40.784 40.6627 39.904C40.2147 39.008 39.9907 37.976 39.9907 36.808C39.9907 35.64 40.2147 34.616 40.6627 33.736C41.1107 32.84 41.7267 32.152 42.5107 31.672C43.3107 31.176 44.2227 30.928 45.2467 30.928C46.0627 30.928 46.7987 31.104 47.4547 31.456C48.1267 31.792 48.6387 32.264 48.9907 32.872V31.216H52.5907ZM46.3027 39.904C47.1507 39.904 47.8067 39.632 48.2707 39.088C48.7507 38.544 48.9907 37.784 48.9907 36.808C48.9907 35.832 48.7507 35.072 48.2707 34.528C47.8067 33.968 47.1507 33.688 46.3027 33.688C45.4547 33.688 44.7907 33.968 44.3107 34.528C43.8307 35.072 43.5907 35.832 43.5907 36.808C43.5907 37.768 43.8307 38.528 44.3107 39.088C44.7907 39.632 45.4547 39.904 46.3027 39.904ZM54.4192 43V31.216H58.0432V43H54.4192ZM54.2992 25.552H58.1872V28.936H54.2992V25.552ZM59.8576 43V26.08H63.4816V43H59.8576ZM65.2961 43V31.216H68.9201V43H65.2961ZM65.1761 25.552H69.0641V28.936H65.1761V25.552ZM78.1265 30.928C79.5345 30.928 80.5825 31.344 81.2705 32.176C81.9585 32.992 82.3025 34.232 82.3025 35.896V43H78.6785V36.064C78.6785 35.264 78.5265 34.68 78.2225 34.312C77.9345 33.944 77.4785 33.76 76.8545 33.76C76.1025 33.76 75.4945 34 75.0305 34.48C74.5825 34.96 74.3585 35.6 74.3585 36.4V43H70.7345V31.216H74.2625V32.896C74.6785 32.256 75.2145 31.768 75.8705 31.432C76.5425 31.096 77.2945 30.928 78.1265 30.928ZM89.2799 30.928C91.0399 30.928 92.3359 31.344 93.1679 32.176C94.0159 33.008 94.4399 34.296 94.4399 36.04V43H91.0079V41.248C90.7679 41.856 90.3679 42.336 89.8079 42.688C89.2479 43.024 88.5919 43.192 87.8399 43.192C87.0399 43.192 86.3119 43.032 85.6559 42.712C85.0159 42.392 84.5039 41.944 84.1199 41.368C83.7519 40.792 83.5679 40.152 83.5679 39.448C83.5679 38.584 83.7839 37.904 84.2159 37.408C84.6639 36.912 85.3759 36.552 86.3519 36.328C87.3279 36.104 88.6639 35.992 90.3599 35.992H90.9839V35.56C90.9839 34.856 90.8319 34.36 90.5279 34.072C90.2239 33.784 89.6959 33.64 88.9439 33.64C88.3679 33.64 87.7279 33.744 87.0239 33.952C86.3199 34.16 85.6479 34.448 85.0079 34.816L84.0479 32.392C84.7199 31.976 85.5439 31.632 86.5199 31.36C87.5119 31.072 88.4319 30.928 89.2799 30.928ZM88.6319 40.696C89.3359 40.696 89.9039 40.464 90.3359 40C90.7679 39.52 90.9839 38.904 90.9839 38.152V37.744H90.5759C89.2799 37.744 88.3679 37.848 87.8399 38.056C87.3279 38.264 87.0719 38.64 87.0719 39.184C87.0719 39.616 87.2159 39.976 87.5039 40.264C87.8079 40.552 88.1839 40.696 88.6319 40.696ZM103.582 30.928C104.99 30.928 106.038 31.344 106.726 32.176C107.414 32.992 107.758 34.232 107.758 35.896V43H104.134V36.064C104.134 35.264 103.982 34.68 103.678 34.312C103.39 33.944 102.934 33.76 102.31 33.76C101.558 33.76 100.95 34 100.486 34.48C100.038 34.96 99.8135 35.6 99.8135 36.4V43H96.1895V31.216H99.7175V32.896C100.134 32.256 100.67 31.768 101.326 31.432C101.998 31.096 102.75 30.928 103.582 30.928ZM109.287 39.16H113.175V43H109.287V39.16Z" fill="#2B2B2B"/>
</svg>
